<svg xmlns="http://www.w3.org/2000/svg" viewBox="0 0 243.59 360"><defs><style>.cls-1{fill:#474747;}.cls-2{fill:aqua;}</style></defs><title>LogotipoblRecurso 1</title><g id="Capa_2" data-name="Capa 2"><g id="Capa_1-2" data-name="Capa 1"><path class="cls-1" d="M49.26,166.7C13.12,145.93,13,93.81,49.08,72.9L162,7.39c36.06-20.91,81.23,5.05,81.31,46.72l.26,130.57c.08,41.69-45,67.84-81.14,47.07h0Z"/><path class="cls-2" d="M159.22,71.79,107.64,101.7a20,20,0,0,0,.07,34.68l51.7,29.71a20,20,0,0,0,30-17.4l-.12-59.62A20,20,0,0,0,159.22,71.79Z"/><path class="cls-2" d="M123.88,254.5c23,13.25,23.11,46.47.12,59.8L53.58,355.15C29.89,368.88.22,351.83.16,324.45L0,243c0-26.58,28.68-43.25,51.73-30h0Z"/><path class="cls-1" d="M57.34,321.52l25.45-14.76a26.29,26.29,0,0,0-.09-45.54L66.61,252a26.29,26.29,0,0,0-39.39,22.85l.06,29.42A20,20,0,0,0,57.34,321.52Z"/></g></g></svg>