<svg xmlns="http://www.w3.org/2000/svg" viewBox="0 0 798.5 218.02"><defs><style>.cls-1{fill:#474747;}.cls-2{fill:aqua;}</style></defs><title>LogotipoblRecurso 2</title><g id="Capa_2" data-name="Capa 2"><g id="Capa_1-2" data-name="Capa 1"><path class="cls-1" d="M271.44,174.75c-4.84,66.5-63.14,86.42-134,86.42C63.57,261,2.64,239.64,2.93,165.08V150.73C2.64,76.31,63.57,54.92,137.4,54.63c70.9.15,129.2,20.07,134,86.43H192.77c-7.17-19.34-29-23.88-55.37-23.88-31.35.44-58,6-57.57,38.38v4.83c-.44,32.08,26.22,37.94,57.57,38.38,26.37,0,48.34-4.69,55.37-24Z" transform="translate(-2.93 -43.15)"/><path class="cls-1" d="M707.67,58.3c54.06-.73,94.19,44.68,93.75,98.44.44,53.47-39.69,99.17-93.75,98.44H532.48V58.3Zm-14.35,62.4H609.24v72.07h84.08c19.92,0,31.2-16.26,31.2-36C724.52,136.82,713.24,120.7,693.32,120.7Z" transform="translate(-2.93 -43.15)"/><path class="cls-1" d="M340.4,74.37c23.87-41.53,83.74-41.65,107.77-.21l72.11,124.32c14.86,25.63-3.59,57.73-33.22,57.79l-184.83.37c-29.62.06-48.2-32-33.44-57.66l13.52-23.53Z" transform="translate(-2.93 -43.15)"/><path class="cls-2" d="M442.27,172.22l-29.91-51.58a20,20,0,0,0-34.68.07L348,172.4a20,20,0,0,0,17.4,30l59.62-.12A20,20,0,0,0,442.27,172.22Z" transform="translate(-2.93 -43.15)"/></g></g></svg>