<svg width="221" height="217" viewBox="0 0 221 217" fill="none" xmlns="http://www.w3.org/2000/svg">
<path d="M167.297 142.433C167.262 171.376 135.867 189.502 110.785 175.061L33.8586 130.805C8.16167 115.958 7.99605 78.7591 33.8041 63.4782L110.416 18.8655C135.533 4.36447 166.885 22.4159 166.851 51.3581L167.297 142.433Z" fill="#00FFFF"/>
<path d="M130.33 91.6619H123.496V98.496H130.33V91.6619Z" fill="#474747"/>
<path d="M130.33 84.665H123.496V91.4991H130.33V84.665Z" fill="#474747"/>
<path d="M130.33 77.8311H123.496V84.6652H130.33V77.8311Z" fill="#474747"/>
<path d="M130.33 70.834H123.496V77.668H130.33V70.834Z" fill="#474747"/>
<path d="M123.496 98.4961H116.662V105.33H123.496V98.4961Z" fill="#474747"/>
<path d="M123.496 91.6619H116.662V98.496H123.496V91.6619Z" fill="#474747"/>
<path d="M123.496 84.665H116.662V91.4991H123.496V84.665Z" fill="#474747"/>
<path d="M123.496 77.8311H116.662V84.6652H123.496V77.8311Z" fill="#474747"/>
<path d="M123.496 70.834H116.662V77.668H123.496V70.834Z" fill="#474747"/>
<path d="M123.496 64H116.662V70.8341H123.496V64Z" fill="#474747"/>
<path d="M116.499 119.161H109.665V125.995H116.499V119.161Z" fill="#474747"/>
<path d="M116.499 105.33H109.665V112.164H116.499V105.33Z" fill="#474747"/>
<path d="M116.499 98.4961H109.665V105.33H116.499V98.4961Z" fill="#474747"/>
<path d="M116.499 91.6619H109.665V98.496H116.499V91.6619Z" fill="#474747"/>
<path d="M116.499 70.834H109.665V77.668H116.499V70.834Z" fill="#474747"/>
<path d="M116.499 64H109.665V70.8341H116.499V64Z" fill="#474747"/>
<path d="M109.665 119.161H102.831V125.995H109.665V119.161Z" fill="#474747"/>
<path d="M109.665 105.33H102.831V112.164H109.665V105.33Z" fill="#474747"/>
<path d="M109.665 98.4961H102.831V105.33H109.665V98.4961Z" fill="#474747"/>
<path d="M109.665 70.834H102.831V77.668H109.665V70.834Z" fill="#474747"/>
<path d="M109.665 64H102.831V70.8341H109.665V64Z" fill="#474747"/>
<path d="M102.668 77.8311H95.834V84.6652H102.668V77.8311Z" fill="#474747"/>
<path d="M102.668 70.834H95.834V77.668H102.668V70.834Z" fill="#474747"/>
<path d="M102.668 64H95.834V70.8341H102.668V64Z" fill="#474747"/>
<path d="M95.834 77.8311H89V84.6652H95.834V77.8311Z" fill="#474747"/>
<path d="M95.834 70.834H89V77.668H95.834V70.834Z" fill="#474747"/>
</svg>
