<svg width="258" height="155" viewBox="0 0 258 155" fill="none" xmlns="http://www.w3.org/2000/svg">
<path d="M15.6442 94.7114H241.49C250.166 94.7114 257.134 87.8238 257.134 79.2493V70.2531C257.134 61.6787 250.166 54.791 241.49 54.791H15.6442C6.9688 54.791 0 61.6787 0 70.2531V79.2493C0 87.8238 6.9688 94.7114 15.6442 94.7114Z" fill="white"/>
<path d="M78.5965 79.3601H76.9754L82.9129 63.9207H84.5242L78.5965 79.3601ZM95.6668 74.5457C95.6668 74.1095 95.5659 73.7416 95.3641 73.4421C95.1688 73.1427 94.9149 72.8888 94.6024 72.6804C94.2899 72.4786 93.9448 72.3093 93.5672 72.1726C93.1961 72.0359 92.838 71.9122 92.493 71.8015C91.9917 71.6388 91.4806 71.4434 90.9598 71.2156C90.4455 70.9812 89.9767 70.7013 89.5535 70.3757C89.1238 70.0437 88.7723 69.6531 88.4988 69.2039C88.2319 68.7481 88.0984 68.2143 88.0984 67.6023C88.0984 66.9903 88.2319 66.4434 88.4988 65.9617C88.7723 65.4799 89.1271 65.073 89.5633 64.741C89.9995 64.4089 90.4943 64.1583 91.0477 63.989C91.6011 63.8132 92.1577 63.7253 92.7176 63.7253C93.3361 63.7253 93.9318 63.8295 94.5047 64.0378C95.0776 64.2397 95.5854 64.5261 96.0281 64.8972C96.4708 65.2683 96.8257 65.7175 97.0926 66.2449C97.3595 66.7722 97.4995 67.3614 97.5125 68.0125H95.657C95.605 67.6023 95.504 67.2312 95.3543 66.8992C95.2046 66.5606 95.006 66.2709 94.7586 66.03C94.5112 65.7891 94.215 65.6036 93.8699 65.4734C93.5314 65.3367 93.1473 65.2683 92.7176 65.2683C92.3725 65.2683 92.034 65.3171 91.702 65.4148C91.3764 65.5125 91.0867 65.6589 90.8328 65.8542C90.5724 66.0496 90.3641 66.2904 90.2078 66.5769C90.0581 66.8634 89.9832 67.1954 89.9832 67.573C89.9897 67.9832 90.0939 68.3315 90.2957 68.6179C90.4975 68.8979 90.7547 69.1355 91.0672 69.3308C91.3732 69.5261 91.7052 69.6889 92.0633 69.8191C92.4279 69.9493 92.7697 70.0632 93.0887 70.1609C93.616 70.3236 94.1434 70.5222 94.6707 70.7566C95.1981 70.9845 95.6798 71.2774 96.116 71.6355C96.5457 71.9675 96.8908 72.3744 97.1512 72.8562C97.4181 73.338 97.5516 73.8946 97.5516 74.5261C97.5516 75.1641 97.4083 75.7208 97.1219 76.196C96.8419 76.6713 96.4774 77.0652 96.0281 77.3777C95.5789 77.6967 95.0711 77.9376 94.5047 78.1003C93.9383 78.2566 93.3719 78.3347 92.8055 78.3347C92.1284 78.3347 91.4611 78.2208 90.8035 77.9929C90.1525 77.7651 89.5861 77.4363 89.1043 77.0066C88.6746 76.6355 88.3328 76.2026 88.0789 75.7078C87.8315 75.2065 87.6981 74.6498 87.6785 74.0378H89.5242C89.5828 74.4806 89.7033 74.8744 89.8856 75.2195C90.0679 75.558 90.3022 75.8445 90.5887 76.0789C90.8751 76.3197 91.2039 76.502 91.575 76.6257C91.9526 76.7429 92.3628 76.8015 92.8055 76.8015C93.157 76.8015 93.5021 76.7592 93.8406 76.6746C94.1857 76.5834 94.4917 76.4434 94.7586 76.2546C95.0255 76.0723 95.2436 75.8412 95.4129 75.5613C95.5822 75.2748 95.6668 74.9363 95.6668 74.5457ZM102.044 69.1453C102.187 68.9304 102.346 68.7351 102.522 68.5593C102.698 68.377 102.884 68.2175 103.079 68.0808C103.391 67.8529 103.733 67.6804 104.104 67.5632C104.482 67.446 104.882 67.3842 105.305 67.3777C105.859 67.3777 106.36 67.4591 106.809 67.6218C107.265 67.7781 107.652 68.0255 107.971 68.364C108.291 68.7026 108.535 69.1322 108.704 69.6531C108.88 70.1674 108.968 70.7794 108.968 71.489V78.1394H107.161V71.4695C107.161 71.0528 107.112 70.6882 107.014 70.3757C106.917 70.0567 106.774 69.7931 106.585 69.5847C106.383 69.3569 106.129 69.1876 105.823 69.0769C105.517 68.9597 105.166 68.9044 104.768 68.9109C104.443 68.9109 104.134 68.9565 103.841 69.0476C103.548 69.1388 103.277 69.269 103.03 69.4382C102.835 69.5684 102.652 69.7214 102.483 69.8972C102.32 70.0665 102.174 70.2553 102.044 70.4636V78.1394H100.237V63.1394H102.044V69.1453ZM112.532 67.573H117.932V76.5769H121.38V78.1394H112.532V76.5769H116.126V69.1453H112.532V67.573ZM115.891 64.7996C115.891 64.6433 115.914 64.4968 115.96 64.3601C116.012 64.2234 116.09 64.1062 116.194 64.0085C116.279 63.9239 116.386 63.8588 116.516 63.8132C116.653 63.7611 116.806 63.7351 116.975 63.7351C117.145 63.7351 117.294 63.7611 117.425 63.8132C117.555 63.8588 117.662 63.9239 117.747 64.0085C117.851 64.0997 117.929 64.2136 117.981 64.3503C118.033 64.4871 118.059 64.6368 118.059 64.7996C118.059 65.0925 117.968 65.3367 117.786 65.532C117.604 65.7273 117.333 65.825 116.975 65.825C116.611 65.825 116.337 65.7273 116.155 65.532C115.979 65.3367 115.891 65.0925 115.891 64.7996ZM124.251 82.2019V67.573H125.901L125.989 68.7253C126.132 68.5431 126.289 68.3803 126.458 68.2371C126.627 68.0873 126.809 67.9604 127.005 67.8562C127.278 67.7 127.581 67.5828 127.913 67.5046C128.251 67.42 128.613 67.3777 128.997 67.3777C129.674 67.3777 130.273 67.5111 130.794 67.7781C131.315 68.045 131.751 68.4161 132.102 68.8914C132.454 69.3666 132.721 69.9363 132.903 70.6003C133.085 71.2579 133.177 71.9806 133.177 72.7683V72.9734C133.177 73.7286 133.085 74.435 132.903 75.0925C132.721 75.7436 132.454 76.31 132.102 76.7917C131.751 77.2735 131.315 77.6511 130.794 77.9246C130.279 78.198 129.69 78.3347 129.026 78.3347C128.623 78.3347 128.245 78.2924 127.893 78.2078C127.548 78.1231 127.236 78.0027 126.956 77.8464C126.787 77.7488 126.627 77.6414 126.477 77.5242C126.328 77.4005 126.188 77.267 126.057 77.1238V82.2019H124.251ZM131.37 72.7683C131.37 72.254 131.311 71.7657 131.194 71.3035C131.083 70.8347 130.911 70.4213 130.677 70.0632C130.436 69.7117 130.133 69.4317 129.768 69.2234C129.404 69.0151 128.968 68.9109 128.46 68.9109C128.18 68.9109 127.919 68.9434 127.679 69.0085C127.444 69.0736 127.233 69.1681 127.044 69.2917C126.835 69.4154 126.65 69.5684 126.487 69.7507C126.324 69.933 126.181 70.1348 126.057 70.3562V75.4441C126.168 75.6394 126.295 75.8217 126.438 75.991C126.582 76.1602 126.744 76.3035 126.927 76.4207C127.135 76.5574 127.366 76.6648 127.62 76.7429C127.88 76.821 128.167 76.8601 128.479 76.8601C128.981 76.8601 129.414 76.7559 129.778 76.5476C130.143 76.3328 130.442 76.0463 130.677 75.6882C130.911 75.3302 131.083 74.9167 131.194 74.448C131.311 73.9792 131.37 73.4877 131.37 72.9734V72.7683ZM137.102 67.573L137.151 68.5691C137.366 68.198 137.646 67.9083 137.991 67.7C138.343 67.4916 138.766 67.3842 139.261 67.3777C139.541 67.3777 139.791 67.4102 140.013 67.4753C140.24 67.5339 140.439 67.6218 140.608 67.739C140.732 67.8302 140.843 67.9408 140.94 68.071C141.044 68.2013 141.132 68.3477 141.204 68.5105C141.295 68.3608 141.402 68.2208 141.526 68.0906C141.65 67.9604 141.783 67.8464 141.927 67.7488C142.109 67.6381 142.311 67.5502 142.532 67.4851C142.76 67.42 143.007 67.3842 143.274 67.3777C143.639 67.3777 143.968 67.433 144.261 67.5437C144.554 67.6479 144.801 67.8041 145.003 68.0125C145.224 68.2468 145.393 68.5528 145.511 68.9304C145.628 69.3015 145.686 69.741 145.686 70.2488V78.1394H143.968V70.2292C143.968 70.0079 143.942 69.8126 143.889 69.6433C143.837 69.474 143.763 69.3341 143.665 69.2234C143.561 69.1192 143.43 69.0411 143.274 68.989C143.124 68.9369 142.949 68.9109 142.747 68.9109C142.532 68.9109 142.346 68.9402 142.19 68.9988C142.034 69.0574 141.904 69.1355 141.8 69.2332C141.695 69.3373 141.614 69.4578 141.555 69.5945C141.497 69.7247 141.458 69.8712 141.438 70.0339C141.438 70.0665 141.438 70.099 141.438 70.1316C141.438 70.1576 141.438 70.1902 141.438 70.2292V78.1394H139.72V70.2195C139.72 69.9981 139.694 69.8028 139.641 69.6335C139.596 69.4643 139.521 69.3243 139.417 69.2136C139.319 69.1095 139.195 69.0346 139.046 68.989C138.902 68.9369 138.733 68.9109 138.538 68.9109C138.323 68.9109 138.134 68.9369 137.971 68.989C137.815 69.0346 137.682 69.1029 137.571 69.1941C137.486 69.2657 137.412 69.3471 137.346 69.4382C137.288 69.5294 137.239 69.627 137.2 69.7312V78.1394H135.481V67.573H137.102ZM155.227 78.1394C155.156 78.0027 155.097 77.8334 155.052 77.6316C155.013 77.4233 154.983 77.2084 154.964 76.9871C154.781 77.1694 154.576 77.3419 154.348 77.5046C154.127 77.6674 153.883 77.8106 153.616 77.9343C153.343 78.058 153.053 78.1557 152.747 78.2273C152.441 78.2989 152.115 78.3347 151.77 78.3347C151.21 78.3347 150.703 78.2533 150.247 78.0906C149.798 77.9278 149.417 77.7065 149.104 77.4265C148.785 77.1531 148.538 76.8276 148.362 76.45C148.193 76.0658 148.108 75.6524 148.108 75.2097C148.108 74.6303 148.222 74.1225 148.45 73.6863C148.684 73.2501 149.013 72.8855 149.436 72.5925C149.86 72.3061 150.367 72.0912 150.96 71.948C151.559 71.8048 152.226 71.7332 152.962 71.7332H154.934V70.9031C154.934 70.5841 154.876 70.2976 154.759 70.0437C154.641 69.7898 154.475 69.5717 154.261 69.3894C154.046 69.2136 153.782 69.0769 153.47 68.9792C153.164 68.8816 152.819 68.8328 152.434 68.8328C152.076 68.8328 151.754 68.8783 151.468 68.9695C151.188 69.0606 150.95 69.1811 150.755 69.3308C150.559 69.4806 150.406 69.6596 150.296 69.8679C150.192 70.0697 150.139 70.2813 150.139 70.5027H148.323C148.33 70.1186 148.427 69.741 148.616 69.3699C148.811 68.9988 149.091 68.6635 149.456 68.364C149.814 68.071 150.25 67.8334 150.764 67.6511C151.285 67.4688 151.874 67.3777 152.532 67.3777C153.131 67.3777 153.688 67.4526 154.202 67.6023C154.716 67.7455 155.162 67.9636 155.54 68.2566C155.911 68.5561 156.204 68.9272 156.419 69.3699C156.634 69.8126 156.741 70.3302 156.741 70.9226V75.8347C156.741 76.1863 156.774 76.5606 156.839 76.9578C156.904 77.3484 156.995 77.6902 157.112 77.9832V78.1394H155.227ZM152.034 76.7625C152.386 76.7625 152.714 76.7169 153.02 76.6257C153.326 76.5346 153.606 76.4141 153.86 76.2644C154.108 76.1147 154.322 75.9454 154.505 75.7566C154.687 75.5613 154.83 75.3595 154.934 75.1511V73.0125H153.255C152.63 73.0125 152.083 73.0678 151.614 73.1785C151.152 73.2826 150.784 73.4454 150.511 73.6667C150.315 73.823 150.166 74.0085 150.061 74.2234C149.964 74.4382 149.915 74.6824 149.915 74.9558C149.915 75.2162 149.957 75.4571 150.042 75.6785C150.133 75.8998 150.266 76.0886 150.442 76.2449C150.618 76.4076 150.839 76.5346 151.106 76.6257C151.373 76.7169 151.682 76.7625 152.034 76.7625ZM164.573 65.0144V67.573H168.596V68.9695H164.573V74.7117C164.573 75.1218 164.625 75.4604 164.729 75.7273C164.833 75.9942 164.977 76.2058 165.159 76.3621C165.341 76.5248 165.55 76.6388 165.784 76.7039C166.025 76.769 166.279 76.8015 166.546 76.8015C166.741 76.8015 166.943 76.7917 167.151 76.7722C167.36 76.7462 167.565 76.7169 167.766 76.6843C167.962 76.6518 168.144 76.6192 168.313 76.5867C168.489 76.5476 168.632 76.5151 168.743 76.489L168.997 77.7683C168.847 77.8595 168.665 77.9408 168.45 78.0125C168.235 78.0776 168.001 78.1329 167.747 78.1785C167.493 78.2306 167.223 78.2696 166.936 78.2957C166.656 78.3217 166.376 78.3347 166.096 78.3347C165.628 78.3347 165.188 78.2696 164.778 78.1394C164.374 78.0027 164.023 77.7878 163.723 77.4949C163.424 77.2084 163.186 76.8373 163.011 76.3816C162.841 75.9194 162.757 75.3627 162.757 74.7117V68.9695H159.983V67.573H162.757V65.0144H164.573ZM176.975 78.3347C176.233 78.3347 175.55 78.2078 174.925 77.9539C174.306 77.7 173.776 77.3451 173.333 76.8894C172.89 76.4337 172.545 75.8933 172.298 75.2683C172.05 74.6433 171.927 73.963 171.927 73.2273V72.8171C171.927 71.9643 172.063 71.2026 172.337 70.532C172.61 69.8549 172.975 69.282 173.43 68.8132C173.88 68.351 174.391 67.9962 174.964 67.7488C175.543 67.5014 176.136 67.3777 176.741 67.3777C177.503 67.3777 178.167 67.5111 178.733 67.7781C179.306 68.0385 179.781 68.3998 180.159 68.8621C180.537 69.3308 180.817 69.8809 180.999 70.5125C181.188 71.144 181.282 71.8276 181.282 72.5632V73.3738H173.733V73.4421C173.779 73.9565 173.88 74.4089 174.036 74.7996C174.199 75.1902 174.42 75.5352 174.7 75.8347C174.986 76.1537 175.332 76.4044 175.735 76.5867C176.139 76.769 176.585 76.8601 177.073 76.8601C177.718 76.8601 178.291 76.7299 178.792 76.4695C179.293 76.2091 179.71 75.864 180.042 75.4343L181.145 76.2937C180.794 76.8276 180.266 77.3028 179.563 77.7195C178.867 78.1296 178.004 78.3347 176.975 78.3347ZM176.741 68.8621C176.376 68.8621 176.031 68.9304 175.706 69.0671C175.38 69.1973 175.087 69.3894 174.827 69.6433C174.567 69.9037 174.345 70.2227 174.163 70.6003C173.987 70.9714 173.863 71.4011 173.792 71.8894H179.475V71.8015C179.475 71.476 179.414 71.1277 179.29 70.7566C179.166 70.379 178.994 70.0535 178.772 69.78C178.551 69.5066 178.271 69.2852 177.932 69.116C177.6 68.9467 177.203 68.8621 176.741 68.8621Z" fill="black"/>
<path d="M139.005 40.2823H117.582C112.084 40.2823 108.576 34.5946 111.325 30.0444L122.037 12.4126C124.786 7.86246 131.706 7.86246 134.455 12.4126L145.167 29.9496C148.011 34.5946 144.598 40.2823 139.005 40.2823Z" fill="#6FFFA0"/>
<path fill-rule="evenodd" clip-rule="evenodd" d="M103.628 25.3809L114.334 7.75857C114.336 7.75481 114.339 7.75104 114.341 7.74728C120.591 -2.57874 135.889 -2.58243 142.145 7.73623L152.843 25.2502C152.844 25.2527 152.846 25.2551 152.847 25.2575C152.847 25.2578 152.847 25.2573 152.847 25.2575C159.709 36.4784 150.935 49.2823 139.005 49.2823H117.582C105.972 49.2823 96.7951 36.6903 103.622 25.3904L103.628 25.3809ZM145.167 29.9496L134.455 12.4126C131.706 7.86246 124.786 7.86246 122.037 12.4126L111.325 30.0444C108.576 34.5946 112.084 40.2823 117.582 40.2823H139.005C144.598 40.2823 148.011 34.5946 145.167 29.9496Z" fill="#474747"/>
<path d="M149.079 127.246L149.085 127.236L111.392 125.004L107.552 127.35L107.553 127.352C107.553 127.353 107.554 127.353 107.554 127.354L118.252 144.868C118.254 144.872 118.256 144.875 118.258 144.879C122.761 152.314 133.871 152.312 138.37 144.874C138.371 144.872 138.372 144.87 138.373 144.868L149.079 127.246Z" fill="#6FFFA0" stroke="#474747" stroke-width="9"/>
<path d="M117.553 114.672L138.977 114.672C144.475 114.672 147.983 120.359 145.234 124.909L134.522 142.541C131.773 147.091 124.853 147.091 122.104 142.541L111.392 125.004C108.548 120.359 111.961 114.672 117.553 114.672Z" fill="#6FFFA0"/>
<path fill-rule="evenodd" clip-rule="evenodd" d="M152.931 129.573L142.225 147.195C142.223 147.199 142.22 147.203 142.218 147.207C135.968 157.533 120.67 157.536 114.414 147.218L103.716 129.704C103.715 129.701 103.713 129.699 103.712 129.696C103.712 129.696 103.712 129.697 103.712 129.696C96.8497 118.475 105.624 105.672 117.553 105.672L138.977 105.672C150.587 105.672 159.764 118.264 152.937 129.563L152.931 129.573ZM111.392 125.004L122.104 142.541C124.853 147.091 131.773 147.091 134.522 142.541L145.234 124.909C147.983 120.359 144.475 114.672 138.977 114.672L117.553 114.672C111.961 114.672 108.548 120.359 111.392 125.004Z" fill="#474747"/>
</svg>
