<svg width="291" height="259" viewBox="0 0 291 259" fill="none" xmlns="http://www.w3.org/2000/svg">
<path d="M125.01 248.28L135.86 258.8H145V240.54L141.77 237.82L125.01 248.28Z" fill="#F2EFDF"/>
<path d="M90.98 222.76L60.88 211.22L32.78 168.39L45.52 147.42L108.39 214.07L90.98 222.76Z" fill="#E2AE69"/>
<path d="M49.48 156.78L42.15 168.39H32.78L26.47 132.35L31.15 115.25L35.36 88.23L99.77 59.86L145.04 41.54V149.15L49.48 156.78Z" fill="#C18C3E"/>
<path d="M92.24 212.47L65.57 188.55L49.48 156.78L70.86 147.22L109.95 148.64L117.55 143.12L138.05 151.9L135.34 195.27L92.24 212.47Z" fill="#C18C3E"/>
<path d="M144.48 240.38L141.41 243.93L117.69 250.25L108.94 244.34L90.6101 225.81L92.2401 212.47L116.26 195.27H122.51L144.48 240.38Z" fill="#EDC18C"/>
<path d="M124 212.47L122.17 191.4L131.74 177.28L129.57 156.78L114.64 139.82L131.74 115.65L122.04 95.54L135.34 100.18L140.22 111.31L145.04 103.82V206.31L124 212.47Z" fill="#EFD4B6"/>
<path d="M125.63 218.55L124 212.47L137.31 186.92L145.04 182.85V216.92L125.63 218.55Z" fill="#C57300"/>
<path d="M140.02 215.02L130.52 214.07L125.63 218.55L128.34 222.01L131.33 221.81L138.32 225.74V228.6L137.1 230.77L138.32 232.8L140.22 235.04L139.02 235.68L142.19 239.73L145.04 240.54V216.92L140.02 215.02Z" fill="#241B16"/>
<path d="M138.32 232.8L137.1 230.77L138.32 228.6V225.74L131.33 221.81L128.34 222.01L139.02 235.68L140.22 235.04L138.32 232.8Z" fill="#72474B"/>
<path d="M113.01 172.67L111.24 180.95H115.45L117.55 172.67L107.44 145.79L87.7601 141.04L69.5701 144.84L70.8601 147.22L74.4601 148.78L76.4901 159.78L88.3001 171.04L106.9 171.58L110.29 168.87L113.01 172.67Z" fill="#241B16"/>
<path d="M78.9 144.57L77.27 148.44L78.9 158.72L88.52 168.45L106.64 169.87L112.19 162.44L106.08 146.71L87.78 142.72L78.9 144.57Z" fill="#A1D9DE"/>
<path d="M94.33 149.91L96.52 151.34V155.41L95.19 159.28H94.33L93.77 154.6L94.33 149.91Z" fill="#241B16"/>
<g style="mix-blend-mode:soft-light">
<path d="M93.77 145.66L92.99 152.51L95.5 152.92L99.3 146.26L93.77 145.66Z" fill="white"/>
</g>
<path d="M90.8799 67.11L28.7799 5.01996L12.3499 2.57996L0.159912 8.97996L2.03991 45.61L10.1799 64.34L24.2099 80.61L28.0999 109.34L30.9599 115.95L90.8799 67.11Z" fill="#72474B"/>
<path d="M28.3 5.43L90.88 67.11L99.77 59.86L65.97 28.92L28.51 2.44L12.01 0L0 5.91L0.16 8.98L12.35 2.58L28.3 5.43Z" fill="#E2AE69"/>
<path d="M142.07 243.17L143.86 246.38L145.04 247.15V240.54L144.48 240.38L142.07 243.17Z" fill="#72474B"/>
<path d="M164.98 248.28L154.12 258.8H145V240.54L148.22 237.82L164.98 248.28Z" fill="#F2EFDF"/>
<path d="M199.06 222.76L229.16 211.22L257.26 168.39L244.52 147.42L181.64 214.07L199.06 222.76Z" fill="#E2AE69"/>
<path d="M240.56 156.78L247.89 168.39H257.26L263.57 132.35L258.89 115.25L254.68 88.23L190.27 59.86L145 41.54V149.15L240.56 156.78Z" fill="#C18C3E"/>
<path d="M197.8 212.47L224.47 188.55L240.56 156.78L219.18 147.22L180.09 148.64L172.5 143.12L151.98 151.9L154.7 195.27L197.8 212.47Z" fill="#C18C3E"/>
<path d="M145.56 240.38L148.63 243.93L172.35 250.25L181.1 244.34L199.43 225.81L197.8 212.47L173.77 195.27H167.53L145.56 240.38Z" fill="#EDC18C"/>
<path d="M166.04 212.47L167.87 191.4L158.3 177.28L160.47 156.78L175.4 139.82L158.3 115.65L166.14 95.54L154.7 100.18L149.81 111.31L145 103.82V206.31L166.04 212.47Z" fill="#EFD4B6"/>
<path d="M164.41 218.55L166.04 212.47L152.73 186.92L145 182.85V216.92L164.41 218.55Z" fill="#C57300"/>
<path d="M150.02 215.02L159.52 214.07L164.41 218.55L161.7 222.01L158.71 221.81L151.72 225.74V228.6L152.93 230.77L151.72 232.8L149.81 235.04L151.01 235.68L147.85 239.73L145 240.54V216.92L150.02 215.02Z" fill="#241B16"/>
<path d="M151.72 232.8L152.93 230.77L151.72 228.6V225.74L158.71 221.81L161.7 222.01L151.01 235.68L149.81 235.04L151.72 232.8Z" fill="#72474B"/>
<path d="M177.03 172.67L178.79 180.95H174.59L172.5 172.67L182.6 145.79L202.28 141.04L220.47 144.84L219.18 147.22L215.58 148.78L213.55 159.78L201.74 171.04L183.14 171.58L179.75 168.87L177.03 172.67Z" fill="#241B16"/>
<path d="M211.14 144.57L212.77 148.44L211.14 158.72L201.52 168.45L183.39 169.87L177.85 162.44L183.96 146.71L202.26 142.72L211.14 144.57Z" fill="#A1D9DE"/>
<path d="M195.71 149.91L193.52 151.34V155.41L194.85 159.28H195.71L196.27 154.6L195.71 149.91Z" fill="#241B16"/>
<g style="mix-blend-mode:soft-light">
<path d="M196.27 145.66L197.05 152.51L194.54 152.92L190.74 146.26L196.27 145.66Z" fill="white"/>
</g>
<path d="M199.16 67.11L261.26 5.01996L277.69 2.57996L289.88 8.97996L288 45.61L279.85 64.34L263.57 80.61L261.94 109.34L259.08 115.95L199.16 67.11Z" fill="#72474B"/>
<path d="M261.74 5.43L199.16 67.11L190.27 59.86L224.07 28.92L261.53 2.44L278.03 0L290.04 5.91L289.88 8.98L277.69 2.58L261.74 5.43Z" fill="#E2AE69"/>
<path d="M147.97 243.17L146.18 246.38L145 247.15V240.54L145.56 240.38L147.97 243.17Z" fill="#72474B"/>
<path d="M145.04 85.3199L110.01 133.94L107.44 145.79L108.49 148.59L109.95 148.64L117.55 143.12L114.64 139.82L144.85 110.08L145.04 85.3199Z" fill="#241B16"/>
<path d="M145.04 85.3199L180.03 133.94L182.6 145.79L181.55 148.59L180.09 148.64L172.5 143.12L175.4 139.82L144.85 110.08L145.04 85.3199Z" fill="#241B16"/>
<path d="M108.49 148.59L109.95 148.64L117.55 143.12L129.57 156.78L131.74 177.28L122.17 191.4L122.51 195.27H116.26L92.24 212.47L90.98 222.76L84.74 220.37L86.61 207.43L111.24 180.95H115.45L117.55 172.67L108.49 148.59Z" fill="#C57300"/>
<path d="M181.53 148.56L180.07 148.61L172.48 143.09L160.45 156.76L158.28 177.25L167.85 191.37L167.52 195.24H173.76L197.79 212.45L199.04 222.73L205.29 220.34L203.41 207.4L178.78 180.92H174.57L172.48 172.64L181.53 148.56Z" fill="#C57300"/>
<path d="M117.55 143.12L109.95 148.64L108.49 148.59L107.44 145.79L87.76 141.04L69.57 144.84L70.86 147.22L74.46 148.78L76.49 159.78L88.3 171.04L106.9 171.58L110.29 168.87L113.01 172.67L111.24 180.95L107.44 177.8H85.76L69.57 168.39V147.8L61.21 141.74L79.38 129.49L114.64 139.82L117.55 143.12Z" fill="#EDC18C"/>
<path d="M172.35 143.14L179.94 148.66L181.4 148.61L182.45 145.81L202.13 141.06L220.32 144.86L219.04 147.24L215.44 148.8L213.4 159.79L201.59 171.06L182.99 171.6L179.6 168.89L176.89 172.69L178.65 180.97L182.45 177.82H204.14L220.32 168.41L220.33 147.81L228.68 141.76L210.51 129.51L175.26 139.84L172.35 143.14Z" fill="#EDC18C"/>
<path d="M69.57 152.92L49.48 156.78L32.78 168.39L42.33 182.94L55.12 167.93L69.57 157.26V152.92Z" fill="#241B16"/>
<path d="M220.37 152.92L240.46 156.78L257.15 168.39L247.61 182.94L234.81 167.93L220.37 157.26V152.92Z" fill="#241B16"/>
<path d="M137.62 244.94L141.57 249.02H145V246.96L143.86 246.38L142.07 243.17L141.41 243.93L137.62 244.94Z" fill="#AD666A"/>
<path d="M152.34 244.94L148.39 249.02H144.97V246.96L146.11 246.38L147.97 243.17L148.63 243.93L152.34 244.94Z" fill="#AD666A"/>
<g style="mix-blend-mode:multiply">
<path d="M154.07 258.8L164.93 248.28L172.3 250.25L181.05 244.34L199.38 225.81L199 222.76L229.11 211.22L257.2 168.39L263.52 132.35L259.03 115.95L261.89 109.34L263.52 80.61L279.81 64.34L287.95 45.61L289.83 8.98L289.99 5.91L277.97 0L261.48 2.44L224.02 28.92L190.22 59.86L170.58 51.91L170.55 51.78L163.45 48.9L163.48 49.04L157.22 46.51L157.19 46.37L152.65 44.53L152.69 44.67L146.66 42.23L146.67 41.72L145.33 41.54L145.01 41.57L144.99 41.56V41.54L144.97 41.55V258.8H154.07Z" fill="#DBDBDB"/>
</g>
</svg>
