<svg width="269" height="258" viewBox="0 0 269 258" fill="none" xmlns="http://www.w3.org/2000/svg">
<path d="M8.92007 171.19L2.57007 153.5L12.9401 106.24L84.5901 58.6999L105 54.0199L127.66 48.3199H134.25V178.5L95.6301 187.26L8.92007 171.19Z" fill="#1B2833"/>
<path d="M112.37 178.5L100.57 134.36L110.59 95.86L105 54.0199L127.66 48.3199H134.25V158.97L120.07 162.82L112.37 178.5Z" fill="#6494BF"/>
<path d="M74.29 204.68L113.96 235.6L127.66 214.6L118.4 183.8L112.37 178.5L109.36 164.6L87.07 134.78L42.1801 134.36L8.92004 171.19L11 192.45L74.29 204.68Z" fill="#2F4559"/>
<path d="M51.67 233.79L64.16 229.44L108.02 244.7L113.96 235.6L74.29 204.68L11 192.45L11.6 198.64L51.67 233.79Z" fill="#1B2833"/>
<path d="M96.39 234.84L116.28 251.7L129.45 257.78H134.25V226.59L112.93 227.88L96.39 234.84Z" fill="#ECEAEB"/>
<path d="M134.25 211.86V226.59L113.88 233.29L93.12 235.13L72.53 214.54L76.05 194.79L100.82 188.93L119.57 195.12L134.25 211.86Z" fill="#F2EFDF"/>
<path d="M116.28 191.5L110.59 182.12L120.07 162.82L134.25 158.97V192.45L116.28 191.5Z" fill="#436380"/>
<path d="M123.87 188.93L116.28 191.5L118.65 198.14L120.83 200.57L124.76 198.64L129.03 202.24L127.12 207.58L131.01 211.92L134.25 212.59V191.5L123.87 188.93Z" fill="#D75548"/>
<path d="M124.76 198.64L120.83 200.57L127.12 207.58L129.03 202.24L124.76 198.64Z" fill="#A3514D"/>
<path d="M122.63 230.41L129.56 234.24L134.25 235.13V226.59L122.63 230.41Z" fill="#D75548"/>
<path d="M112.37 178.5L105.12 166.5L107.18 154.95L103.39 142.9L85.47 129.4L71.42 129.56L59.59 135.03L42.1801 134.36L66.51 121.3H89.16L110.59 139.72L113.82 155.12L112.37 178.5Z" fill="#F2EFDF"/>
<path d="M104.89 147.68L103.67 158.97L84.36 164.6L68.41 160.36L59.7 149.32L58.81 138.38L51.67 143.62L55.2401 152.55L65.39 164.6L83.69 168.62L105.12 166.5L107.18 154.95L104.89 147.68Z" fill="#ECEAEB"/>
<path d="M58.8101 138.38L59.5901 135.03L71.4201 129.56L85.4701 129.4L103.39 142.9L105 148.03L103.67 158.97L84.3601 164.6L68.4101 160.36L59.7001 149.32L58.8101 138.38Z" fill="#241B16"/>
<path d="M63.24 137.04L72.87 132.35L85 133.19L100.57 145.16L100.07 155.79L85.25 161.9L69.69 157.3L62.74 148.17L63.24 137.04Z" fill="#6BFFEE"/>
<path d="M79.98 134.78L74.29 140.55L73.79 148.09L76.05 153.5L83.16 155.37L89.19 149.9L88.6801 141.22L84.92 136.12L79.98 134.78Z" fill="#241B16"/>
<g style="mix-blend-mode:soft-light">
<path d="M86.34 136.45L82.41 140.98L85.59 147.36L91.03 142.84L86.34 136.45Z" fill="white"/>
</g>
<g style="mix-blend-mode:multiply">
<path d="M11.88 85.24L3.23001 42.27L7.34 21.31L22.25 5.81L40.61 11.26L70.85 38.5L83.96 59.12L84.59 58.7L105 54.02L69.85 34.82L38.61 5.81L19.64 0L4.24002 16.52L0 38.84L8.92001 84.59V98.88L12.94 106.24L15.27 104.7L11.88 98.65V85.24Z" fill="#DBDBDB"/>
</g>
<path d="M70.85 38.5001L40.61 11.2601L22.25 5.81006L7.33997 21.3101L3.22998 42.2701L11.88 85.2401V98.6501L15.27 104.7L83.96 59.1201L70.85 38.5001Z" fill="#436380"/>
<path d="M70.85 38.5001L40.61 11.2601L22.25 5.81006L7.33997 21.3101L3.22998 42.2701L11.88 85.2401V98.6501L15.27 104.7L83.96 59.1201L70.85 38.5001Z" fill="#D75548"/>
<path d="M259.56 171.19L265.93 153.5L255.54 106.24L183.9 58.6999L163.48 54.0199L140.83 48.3199H134.25V178.5L172.86 187.26L259.56 171.19Z" fill="#1B2833"/>
<path d="M156.12 178.5L167.92 134.36L157.9 95.86L163.48 54.0199L140.83 48.3199H134.25V158.97L148.42 162.82L156.12 178.5Z" fill="#6494BF"/>
<path d="M194.2 204.68L154.53 235.6L140.83 214.6L150.09 183.8L156.12 178.5L159.13 164.6L181.42 134.78L226.31 134.36L259.56 171.19L257.49 192.45L194.2 204.68Z" fill="#2F4559"/>
<path d="M216.82 233.79L204.32 229.44L160.47 244.7L154.53 235.6L194.2 204.68L257.49 192.45L256.89 198.64L216.82 233.79Z" fill="#1B2833"/>
<path d="M172.1 234.84L152.21 251.7L139.04 257.78H134.25V226.59L155.56 227.88L172.1 234.84Z" fill="#ECEAEB"/>
<path d="M134.25 211.86V226.59L154.61 233.29L175.37 235.13L195.96 214.54L192.44 194.79L167.67 188.93L148.92 195.12L134.25 211.86Z" fill="#F2EFDF"/>
<path d="M152.21 191.5L157.9 182.12L148.42 162.82L134.25 158.97V192.45L152.21 191.5Z" fill="#436380"/>
<path d="M144.62 188.93L152.21 191.5L149.84 198.14L147.66 200.57L143.73 198.64L139.46 202.24L141.37 207.58L137.48 211.92L134.25 212.59V191.5L144.62 188.93Z" fill="#D75548"/>
<path d="M143.73 198.64L147.66 200.57L141.37 207.58L139.46 202.24L143.73 198.64Z" fill="#A3514D"/>
<path d="M145.86 230.41L138.93 234.24L134.25 235.13V226.59L145.86 230.41Z" fill="#D75548"/>
<path d="M156.12 178.5L163.37 166.5L161.31 154.95L165.1 142.9L183.01 129.4L197.07 129.56L208.9 135.03L226.31 134.36L201.98 121.3H179.33L157.9 139.72L154.67 155.12L156.12 178.5Z" fill="#F2EFDF"/>
<path d="M163.59 147.68L164.82 158.97L184.13 164.6L200.08 160.36L208.79 149.32L209.68 138.38L216.82 143.62L213.25 152.55L203.1 164.6L184.8 168.62L163.37 166.5L161.31 154.95L163.59 147.68Z" fill="#ECEAEB"/>
<path d="M209.68 138.38L208.9 135.03L197.07 129.56L183.01 129.4L165.1 142.9L163.48 148.03L164.82 158.97L184.13 164.6L200.08 160.36L208.79 149.32L209.68 138.38Z" fill="#241B16"/>
<path d="M205.25 137.04L195.62 132.35L183.48 133.19L167.92 145.16L168.42 155.79L183.23 161.9L198.8 157.3L205.75 148.17L205.25 137.04Z" fill="#6BFFEE"/>
<path d="M188.51 134.78L194.2 140.55L194.7 148.09L192.44 153.5L185.33 155.37L179.3 149.9L179.8 141.22L183.57 136.12L188.51 134.78Z" fill="#241B16"/>
<g style="mix-blend-mode:soft-light">
<path d="M182.14 136.45L186.08 140.98L182.9 147.36L177.46 142.84L182.14 136.45Z" fill="white"/>
</g>
<path d="M256.61 85.24L265.26 42.27L261.15 21.31L246.24 5.81L227.88 11.26L197.64 38.5L184.53 59.12L183.9 58.7L163.48 54.02L198.63 34.82L229.88 5.81L248.85 0L264.25 16.52L268.49 38.84L259.56 84.59V98.88L255.54 106.24L253.22 104.7L256.61 98.65V85.24Z" fill="#F2EFDF"/>
<path d="M197.64 38.5001L227.88 11.2601L246.24 5.81006L261.15 21.3101L265.26 42.2701L256.61 85.2401V98.6501L253.22 104.7L184.53 59.1201L197.64 38.5001Z" fill="#436380"/>
<path d="M197.64 38.5001L227.88 11.2601L246.24 5.81006L261.15 21.3101L265.26 42.2701L256.61 85.2401V98.6501L253.22 104.7L184.53 59.1201L197.64 38.5001Z" fill="#D75548"/>
<g style="mix-blend-mode:multiply">
<path d="M139.04 257.78L152.21 251.7L160.47 244.7L204.33 229.44L216.82 233.79L256.89 198.64L257.49 192.45L259.56 171.19L265.93 153.5L255.55 106.24L259.56 98.88V84.59L268.49 38.84L264.25 16.52L248.85 0L229.88 5.81L198.64 34.82L163.49 54.02L140.83 48.32H134.25V257.78H139.04Z" fill="#DBDBDB"/>
</g>
<g opacity="0.87">
<path fill-rule="evenodd" clip-rule="evenodd" d="M48.9 122.97C87.66 116.75 119.7 127.07 117.21 142.58C111.32 179.2 95.48 188.22 68.7601 187.8C36.1001 187.27 31.67 172.67 29.66 151.28C28.33 137.07 29.81 126.04 48.91 122.97H48.9Z" fill="#5FE1F2"/>
</g>
<path fill-rule="evenodd" clip-rule="evenodd" d="M118.45 155.71C118.45 155.71 125.32 145.85 131.97 145.68C139.95 145.48 145.24 154.44 145.24 154.44C145.24 154.44 143.86 139.02 131.69 139.34C121.16 139.62 118.45 155.7 118.45 155.7V155.71Z" fill="#2F2F33"/>
<g opacity="0.63">
<path fill-rule="evenodd" clip-rule="evenodd" d="M236.08 153.28C233.7 174.82 228.99 189.48 196.03 189.47C169.07 189.46 153.23 180.09 147.9 143.05C145.64 127.36 178.13 117.48 217.13 124.39C236.35 127.81 237.66 138.97 236.08 153.28Z" fill="#5FE1F2"/>
</g>
<path fill-rule="evenodd" clip-rule="evenodd" d="M246.82 135.66L247.09 127.21C247.09 127.21 247.34 125.6 245.47 124.73C244.44 124.25 243.23 123.99 241.92 123.73C240.07 123.38 238.22 123.12 238.22 123.12C238.22 123.12 216.38 117.49 192.51 118.53C184.66 118.87 177.18 119.41 169.89 120.72C160.04 122.5 150.89 125.26 144.74 126.65C139.65 127.8 135.59 127.59 135.59 127.59C135.59 127.59 130.42 128.18 123.74 126.99C119.01 126.16 114.27 124.81 110.28 123.72C106.67 122.73 103.54 121.95 103.54 121.95C103.54 121.95 87.9801 117.77 70.1001 118C61.6201 118.11 53.0901 118.57 45.4901 119.53C34.5401 120.92 25.9901 122.94 25.9901 122.94C25.9901 122.94 23.1901 123.03 21.9201 124.71C21.0301 125.9 21.5201 128.84 21.5201 128.84L21.9101 139.6C21.9101 139.6 21.7201 140.31 22.2101 141.85C22.5001 142.78 23.4901 143.86 23.8901 144.88C24.5601 146.6 24.6301 148.1 24.6301 148.1C24.6301 148.1 25.9301 154.85 27.8601 161.82C28.8501 165.36 30.0701 168.53 31.2301 171.8C33.2001 177.36 36.3201 181.14 36.3201 181.14C36.3201 181.14 39.3101 185.6 44.6401 187.55C46.9201 188.39 49.6801 189.3 52.1701 189.8C58.2001 191.02 63.5801 191.12 63.5801 191.12C63.5801 191.12 75.5301 192.5 87.6401 190.13C90.4301 189.59 94.09 188.71 97.0601 187.4C101.45 185.47 104.74 183.04 104.74 183.04C104.74 183.04 109.63 179.04 114.47 170.59C117.37 165.52 120.28 158.75 122.29 153.99C123.9 150.17 124.94 147.76 124.94 147.76C124.94 147.76 125.97 141.43 132.6 141.5C140.1 141.57 140.89 148 140.89 148C140.89 148 143.47 155.12 146.63 161.7C150.13 168.97 154.23 175.76 154.23 175.76C154.23 175.76 157.73 181.55 163.05 184.97C169.43 189.06 177.83 190.9 177.83 190.9C177.83 190.9 187.44 192.77 196.95 192.69C206.63 192.62 216.21 190.61 216.21 190.61C216.21 190.61 223.42 189.64 229.05 184.88C233.26 181.33 236.31 173.62 236.31 173.62C236.31 173.62 238.51 167.95 240.37 161.48C242.07 155.59 243.45 148.84 243.45 148.84C243.45 148.84 243.86 147.02 244.41 145.67C244.83 144.64 245.49 143.96 245.87 142.81C246.22 141.74 246.78 135.64 246.78 135.64L246.82 135.66ZM68.9601 186.88C37.2601 186.37 32.9601 172.19 31.0101 151.43C29.7201 137.64 31.1601 126.93 49.6901 123.95C87.3201 117.91 118.41 127.93 115.99 142.99C110.28 178.53 94.8901 187.29 68.9601 186.88ZM195.8 188.25C169.86 188.24 154.62 179.23 149.5 143.59C147.33 128.5 178.58 118.99 216.1 125.64C234.59 128.93 235.85 139.67 234.33 153.43C232.04 174.15 227.51 188.26 195.8 188.25Z" fill="#424249"/>
<path d="M44.3501 135.98H39.7201C39.0901 135.98 38.5801 135.47 38.5801 134.84C38.5801 134.21 39.0901 133.7 39.7201 133.7H44.3501C44.9801 133.7 45.4901 134.21 45.4901 134.84C45.4901 135.47 44.9801 135.98 44.3501 135.98ZM45.4901 140.13C45.4901 139.5 44.9801 138.99 44.3501 138.99H39.7201C39.0901 138.99 38.5801 139.5 38.5801 140.13C38.5801 140.76 39.0901 141.27 39.7201 141.27H44.3501C44.9801 141.27 45.4901 140.76 45.4901 140.13ZM45.4901 145.42C45.4901 144.79 44.9801 144.28 44.3501 144.28H39.7201C39.0901 144.28 38.5801 144.79 38.5801 145.42C38.5801 146.05 39.0901 146.56 39.7201 146.56H44.3501C44.9801 146.56 45.4901 146.05 45.4901 145.42ZM45.4901 150.71C45.4901 150.08 44.9801 149.57 44.3501 149.57H39.7201C39.0901 149.57 38.5801 150.08 38.5801 150.71C38.5801 151.34 39.0901 151.85 39.7201 151.85H44.3501C44.9801 151.85 45.4901 151.34 45.4901 150.71ZM45.4901 156C45.4901 155.37 44.9801 154.86 44.3501 154.86H39.7201C39.0901 154.86 38.5801 155.37 38.5801 156C38.5801 156.63 39.0901 157.14 39.7201 157.14H44.3501C44.9801 157.14 45.4901 156.63 45.4901 156ZM45.4901 161.29C45.4901 160.66 44.9801 160.15 44.3501 160.15H39.7201C39.0901 160.15 38.5801 160.66 38.5801 161.29C38.5801 161.92 39.0901 162.43 39.7201 162.43H44.3501C44.9801 162.43 45.4901 161.92 45.4901 161.29ZM45.4901 166.58C45.4901 165.95 44.9801 165.44 44.3501 165.44H39.7201C39.0901 165.44 38.5801 165.95 38.5801 166.58C38.5801 167.21 39.0901 167.72 39.7201 167.72H44.3501C44.9801 167.72 45.4901 167.21 45.4901 166.58ZM45.4901 171.87C45.4901 171.24 44.9801 170.73 44.3501 170.73H39.7201C39.0901 170.73 38.5801 171.24 38.5801 171.87C38.5801 172.5 39.0901 173.01 39.7201 173.01H44.3501C44.9801 173.01 45.4901 172.5 45.4901 171.87ZM62.8201 134.82C62.8201 134.19 62.3101 133.68 61.6801 133.68H49.5201C48.8901 133.68 48.3801 134.19 48.3801 134.82C48.3801 135.45 48.8901 135.96 49.5201 135.96H61.6801C62.3101 135.96 62.8201 135.45 62.8201 134.82ZM62.8201 140.11C62.8201 139.48 62.3101 138.97 61.6801 138.97H49.5201C48.8901 138.97 48.3801 139.48 48.3801 140.11C48.3801 140.74 48.8901 141.25 49.5201 141.25H61.6801C62.3101 141.25 62.8201 140.74 62.8201 140.11ZM62.8201 145.4C62.8201 144.77 62.3101 144.26 61.6801 144.26H49.5201C48.8901 144.26 48.3801 144.77 48.3801 145.4C48.3801 146.03 48.8901 146.54 49.5201 146.54H61.6801C62.3101 146.54 62.8201 146.03 62.8201 145.4ZM62.8201 150.69C62.8201 150.06 62.3101 149.55 61.6801 149.55H49.5201C48.8901 149.55 48.3801 150.06 48.3801 150.69C48.3801 151.32 48.8901 151.83 49.5201 151.83H61.6801C62.3101 151.83 62.8201 151.32 62.8201 150.69ZM62.8201 155.98C62.8201 155.35 62.3101 154.84 61.6801 154.84H49.5201C48.8901 154.84 48.3801 155.35 48.3801 155.98C48.3801 156.61 48.8901 157.12 49.5201 157.12H61.6801C62.3101 157.12 62.8201 156.61 62.8201 155.98ZM77.3801 161.27C77.3801 160.64 76.8701 160.13 76.2401 160.13H64.0801C63.4501 160.13 62.9401 160.64 62.9401 161.27C62.9401 161.9 63.4501 162.41 64.0801 162.41H76.2401C76.8701 162.41 77.3801 161.9 77.3801 161.27ZM77.3801 166.56C77.3801 165.93 76.8701 165.42 76.2401 165.42H64.0801C63.4501 165.42 62.9401 165.93 62.9401 166.56C62.9401 167.19 63.4501 167.7 64.0801 167.7H76.2401C76.8701 167.7 77.3801 167.19 77.3801 166.56ZM77.3801 171.85C77.3801 171.22 76.8701 170.71 76.2401 170.71H64.0801C63.4501 170.71 62.9401 171.22 62.9401 171.85C62.9401 172.48 63.4501 172.99 64.0801 172.99H76.2401C76.8701 172.99 77.3801 172.48 77.3801 171.85ZM68.1701 134.8C68.1701 134.07 67.5801 133.48 66.8501 133.48C66.1201 133.48 65.5301 134.07 65.5301 134.8C65.5301 135.53 66.1201 136.12 66.8501 136.12C67.5801 136.12 68.1701 135.53 68.1701 134.8ZM72.1401 134.8C72.1401 134.07 71.5501 133.48 70.8201 133.48C70.0901 133.48 69.5001 134.07 69.5001 134.8C69.5001 135.53 70.0901 136.12 70.8201 136.12C71.5501 136.12 72.1401 135.53 72.1401 134.8ZM76.1101 134.8C76.1101 134.07 75.5201 133.48 74.7901 133.48C74.0601 133.48 73.4701 134.07 73.4701 134.8C73.4701 135.53 74.0601 136.12 74.7901 136.12C75.5201 136.12 76.1101 135.53 76.1101 134.8ZM80.0801 134.8C80.0801 134.07 79.4901 133.48 78.7601 133.48C78.0301 133.48 77.4401 134.07 77.4401 134.8C77.4401 135.53 78.0301 136.12 78.7601 136.12C79.4901 136.12 80.0801 135.53 80.0801 134.8ZM84.0501 134.8C84.0501 134.07 83.4601 133.48 82.7301 133.48C82.0001 133.48 81.4101 134.07 81.4101 134.8C81.4101 135.53 82.0001 136.12 82.7301 136.12C83.4601 136.12 84.0501 135.53 84.0501 134.8ZM88.0201 134.8C88.0201 134.07 87.4301 133.48 86.7001 133.48C85.9701 133.48 85.3801 134.07 85.3801 134.8C85.3801 135.53 85.9701 136.12 86.7001 136.12C87.4301 136.12 88.0201 135.53 88.0201 134.8ZM68.1701 145.39C68.1701 144.66 67.5801 144.07 66.8501 144.07C66.1201 144.07 65.5301 144.66 65.5301 145.39C65.5301 146.12 66.1201 146.71 66.8501 146.71C67.5801 146.71 68.1701 146.12 68.1701 145.39ZM72.1401 145.39C72.1401 144.66 71.5501 144.07 70.8201 144.07C70.0901 144.07 69.5001 144.66 69.5001 145.39C69.5001 146.12 70.0901 146.71 70.8201 146.71C71.5501 146.71 72.1401 146.12 72.1401 145.39ZM76.1101 145.39C76.1101 144.66 75.5201 144.07 74.7901 144.07C74.0601 144.07 73.4701 144.66 73.4701 145.39C73.4701 146.12 74.0601 146.71 74.7901 146.71C75.5201 146.71 76.1101 146.12 76.1101 145.39ZM80.0801 145.39C80.0801 144.66 79.4901 144.07 78.7601 144.07C78.0301 144.07 77.4401 144.66 77.4401 145.39C77.4401 146.12 78.0301 146.71 78.7601 146.71C79.4901 146.71 80.0801 146.12 80.0801 145.39ZM84.0501 145.39C84.0501 144.66 83.4601 144.07 82.7301 144.07C82.0001 144.07 81.4101 144.66 81.4101 145.39C81.4101 146.12 82.0001 146.71 82.7301 146.71C83.4601 146.71 84.0501 146.12 84.0501 145.39ZM88.0201 145.39C88.0201 144.66 87.4301 144.07 86.7001 144.07C85.9701 144.07 85.3801 144.66 85.3801 145.39C85.3801 146.12 85.9701 146.71 86.7001 146.71C87.4301 146.71 88.0201 146.12 88.0201 145.39ZM81.7301 160.61C81.7301 159.88 81.1401 159.29 80.4101 159.29C79.6801 159.29 79.0901 159.88 79.0901 160.61C79.0901 161.34 79.6801 161.93 80.4101 161.93C81.1401 161.93 81.7301 161.34 81.7301 160.61ZM85.7001 160.61C85.7001 159.88 85.1101 159.29 84.3801 159.29C83.6501 159.29 83.0601 159.88 83.0601 160.61C83.0601 161.34 83.6501 161.93 84.3801 161.93C85.1101 161.93 85.7001 161.34 85.7001 160.61ZM89.6701 160.61C89.6701 159.88 89.0801 159.29 88.3501 159.29C87.6201 159.29 87.0301 159.88 87.0301 160.61C87.0301 161.34 87.6201 161.93 88.3501 161.93C89.0801 161.93 89.6701 161.34 89.6701 160.61ZM93.6401 160.61C93.6401 159.88 93.0501 159.29 92.3201 159.29C91.5901 159.29 91.0001 159.88 91.0001 160.61C91.0001 161.34 91.5901 161.93 92.3201 161.93C93.0501 161.93 93.6401 161.34 93.6401 160.61ZM97.6101 160.61C97.6101 159.88 97.0201 159.29 96.2901 159.29C95.5601 159.29 94.9701 159.88 94.9701 160.61C94.9701 161.34 95.5601 161.93 96.2901 161.93C97.0201 161.93 97.6101 161.34 97.6101 160.61ZM101.58 160.61C101.58 159.88 100.99 159.29 100.26 159.29C99.5301 159.29 98.9401 159.88 98.9401 160.61C98.9401 161.34 99.5301 161.93 100.26 161.93C100.99 161.93 101.58 161.34 101.58 160.61ZM81.7301 171.53C81.7301 170.8 81.1401 170.21 80.4101 170.21C79.6801 170.21 79.0901 170.8 79.0901 171.53C79.0901 172.26 79.6801 172.85 80.4101 172.85C81.1401 172.85 81.7301 172.26 81.7301 171.53ZM85.7001 171.53C85.7001 170.8 85.1101 170.21 84.3801 170.21C83.6501 170.21 83.0601 170.8 83.0601 171.53C83.0601 172.26 83.6501 172.85 84.3801 172.85C85.1101 172.85 85.7001 172.26 85.7001 171.53ZM89.6701 171.53C89.6701 170.8 89.0801 170.21 88.3501 170.21C87.6201 170.21 87.0301 170.8 87.0301 171.53C87.0301 172.26 87.6201 172.85 88.3501 172.85C89.0801 172.85 89.6701 172.26 89.6701 171.53ZM93.6401 171.53C93.6401 170.8 93.0501 170.21 92.3201 170.21C91.5901 170.21 91.0001 170.8 91.0001 171.53C91.0001 172.26 91.5901 172.85 92.3201 172.85C93.0501 172.85 93.6401 172.26 93.6401 171.53ZM97.6101 171.53C97.6101 170.8 97.0201 170.21 96.2901 170.21C95.5601 170.21 94.9701 170.8 94.9701 171.53C94.9701 172.26 95.5601 172.85 96.2901 172.85C97.0201 172.85 97.6101 172.26 97.6101 171.53ZM101.58 171.53C101.58 170.8 100.99 170.21 100.26 170.21C99.5301 170.21 98.9401 170.8 98.9401 171.53C98.9401 172.26 99.5301 172.85 100.26 172.85C100.99 172.85 101.58 172.26 101.58 171.53Z" fill="white"/>
<path d="M170.47 135.98H165.84C165.21 135.98 164.7 135.47 164.7 134.84C164.7 134.21 165.21 133.7 165.84 133.7H170.47C171.1 133.7 171.61 134.21 171.61 134.84C171.61 135.47 171.1 135.98 170.47 135.98ZM171.61 140.13C171.61 139.5 171.1 138.99 170.47 138.99H165.84C165.21 138.99 164.7 139.5 164.7 140.13C164.7 140.76 165.21 141.27 165.84 141.27H170.47C171.1 141.27 171.61 140.76 171.61 140.13ZM171.61 145.42C171.61 144.79 171.1 144.28 170.47 144.28H165.84C165.21 144.28 164.7 144.79 164.7 145.42C164.7 146.05 165.21 146.56 165.84 146.56H170.47C171.1 146.56 171.61 146.05 171.61 145.42ZM171.61 150.71C171.61 150.08 171.1 149.57 170.47 149.57H165.84C165.21 149.57 164.7 150.08 164.7 150.71C164.7 151.34 165.21 151.85 165.84 151.85H170.47C171.1 151.85 171.61 151.34 171.61 150.71ZM171.61 156C171.61 155.37 171.1 154.86 170.47 154.86H165.84C165.21 154.86 164.7 155.37 164.7 156C164.7 156.63 165.21 157.14 165.84 157.14H170.47C171.1 157.14 171.61 156.63 171.61 156ZM171.61 161.29C171.61 160.66 171.1 160.15 170.47 160.15H165.84C165.21 160.15 164.7 160.66 164.7 161.29C164.7 161.92 165.21 162.43 165.84 162.43H170.47C171.1 162.43 171.61 161.92 171.61 161.29ZM171.61 166.58C171.61 165.95 171.1 165.44 170.47 165.44H165.84C165.21 165.44 164.7 165.95 164.7 166.58C164.7 167.21 165.21 167.72 165.84 167.72H170.47C171.1 167.72 171.61 167.21 171.61 166.58ZM171.61 171.87C171.61 171.24 171.1 170.73 170.47 170.73H165.84C165.21 170.73 164.7 171.24 164.7 171.87C164.7 172.5 165.21 173.01 165.84 173.01H170.47C171.1 173.01 171.61 172.5 171.61 171.87ZM188.94 134.82C188.94 134.19 188.43 133.68 187.8 133.68H175.64C175.01 133.68 174.5 134.19 174.5 134.82C174.5 135.45 175.01 135.96 175.64 135.96H187.8C188.43 135.96 188.94 135.45 188.94 134.82ZM188.94 140.11C188.94 139.48 188.43 138.97 187.8 138.97H175.64C175.01 138.97 174.5 139.48 174.5 140.11C174.5 140.74 175.01 141.25 175.64 141.25H187.8C188.43 141.25 188.94 140.74 188.94 140.11ZM188.94 145.4C188.94 144.77 188.43 144.26 187.8 144.26H175.64C175.01 144.26 174.5 144.77 174.5 145.4C174.5 146.03 175.01 146.54 175.64 146.54H187.8C188.43 146.54 188.94 146.03 188.94 145.4ZM188.94 150.69C188.94 150.06 188.43 149.55 187.8 149.55H175.64C175.01 149.55 174.5 150.06 174.5 150.69C174.5 151.32 175.01 151.83 175.64 151.83H187.8C188.43 151.83 188.94 151.32 188.94 150.69ZM188.94 155.98C188.94 155.35 188.43 154.84 187.8 154.84H175.64C175.01 154.84 174.5 155.35 174.5 155.98C174.5 156.61 175.01 157.12 175.64 157.12H187.8C188.43 157.12 188.94 156.61 188.94 155.98ZM203.5 161.27C203.5 160.64 202.99 160.13 202.36 160.13H190.2C189.57 160.13 189.06 160.64 189.06 161.27C189.06 161.9 189.57 162.41 190.2 162.41H202.36C202.99 162.41 203.5 161.9 203.5 161.27ZM203.5 166.56C203.5 165.93 202.99 165.42 202.36 165.42H190.2C189.57 165.42 189.06 165.93 189.06 166.56C189.06 167.19 189.57 167.7 190.2 167.7H202.36C202.99 167.7 203.5 167.19 203.5 166.56ZM203.5 171.85C203.5 171.22 202.99 170.71 202.36 170.71H190.2C189.57 170.71 189.06 171.22 189.06 171.85C189.06 172.48 189.57 172.99 190.2 172.99H202.36C202.99 172.99 203.5 172.48 203.5 171.85ZM194.29 134.8C194.29 134.07 193.7 133.48 192.97 133.48C192.24 133.48 191.65 134.07 191.65 134.8C191.65 135.53 192.24 136.12 192.97 136.12C193.7 136.12 194.29 135.53 194.29 134.8ZM198.26 134.8C198.26 134.07 197.67 133.48 196.94 133.48C196.21 133.48 195.62 134.07 195.62 134.8C195.62 135.53 196.21 136.12 196.94 136.12C197.67 136.12 198.26 135.53 198.26 134.8ZM202.23 134.8C202.23 134.07 201.64 133.48 200.91 133.48C200.18 133.48 199.59 134.07 199.59 134.8C199.59 135.53 200.18 136.12 200.91 136.12C201.64 136.12 202.23 135.53 202.23 134.8ZM206.2 134.8C206.2 134.07 205.61 133.48 204.88 133.48C204.15 133.48 203.56 134.07 203.56 134.8C203.56 135.53 204.15 136.12 204.88 136.12C205.61 136.12 206.2 135.53 206.2 134.8ZM210.17 134.8C210.17 134.07 209.58 133.48 208.85 133.48C208.12 133.48 207.53 134.07 207.53 134.8C207.53 135.53 208.12 136.12 208.85 136.12C209.58 136.12 210.17 135.53 210.17 134.8ZM214.14 134.8C214.14 134.07 213.55 133.48 212.82 133.48C212.09 133.48 211.5 134.07 211.5 134.8C211.5 135.53 212.09 136.12 212.82 136.12C213.55 136.12 214.14 135.53 214.14 134.8ZM194.29 145.39C194.29 144.66 193.7 144.07 192.97 144.07C192.24 144.07 191.65 144.66 191.65 145.39C191.65 146.12 192.24 146.71 192.97 146.71C193.7 146.71 194.29 146.12 194.29 145.39ZM198.26 145.39C198.26 144.66 197.67 144.07 196.94 144.07C196.21 144.07 195.62 144.66 195.62 145.39C195.62 146.12 196.21 146.71 196.94 146.71C197.67 146.71 198.26 146.12 198.26 145.39ZM202.23 145.39C202.23 144.66 201.64 144.07 200.91 144.07C200.18 144.07 199.59 144.66 199.59 145.39C199.59 146.12 200.18 146.71 200.91 146.71C201.64 146.71 202.23 146.12 202.23 145.39ZM206.2 145.39C206.2 144.66 205.61 144.07 204.88 144.07C204.15 144.07 203.56 144.66 203.56 145.39C203.56 146.12 204.15 146.71 204.88 146.71C205.61 146.71 206.2 146.12 206.2 145.39ZM210.17 145.39C210.17 144.66 209.58 144.07 208.85 144.07C208.12 144.07 207.53 144.66 207.53 145.39C207.53 146.12 208.12 146.71 208.85 146.71C209.58 146.71 210.17 146.12 210.17 145.39ZM214.14 145.39C214.14 144.66 213.55 144.07 212.82 144.07C212.09 144.07 211.5 144.66 211.5 145.39C211.5 146.12 212.09 146.71 212.82 146.71C213.55 146.71 214.14 146.12 214.14 145.39ZM207.85 160.61C207.85 159.88 207.26 159.29 206.53 159.29C205.8 159.29 205.21 159.88 205.21 160.61C205.21 161.34 205.8 161.93 206.53 161.93C207.26 161.93 207.85 161.34 207.85 160.61ZM211.82 160.61C211.82 159.88 211.23 159.29 210.5 159.29C209.77 159.29 209.18 159.88 209.18 160.61C209.18 161.34 209.77 161.93 210.5 161.93C211.23 161.93 211.82 161.34 211.82 160.61ZM215.79 160.61C215.79 159.88 215.2 159.29 214.47 159.29C213.74 159.29 213.15 159.88 213.15 160.61C213.15 161.34 213.74 161.93 214.47 161.93C215.2 161.93 215.79 161.34 215.79 160.61ZM219.76 160.61C219.76 159.88 219.17 159.29 218.44 159.29C217.71 159.29 217.12 159.88 217.12 160.61C217.12 161.34 217.71 161.93 218.44 161.93C219.17 161.93 219.76 161.34 219.76 160.61ZM223.73 160.61C223.73 159.88 223.14 159.29 222.41 159.29C221.68 159.29 221.09 159.88 221.09 160.61C221.09 161.34 221.68 161.93 222.41 161.93C223.14 161.93 223.73 161.34 223.73 160.61ZM227.7 160.61C227.7 159.88 227.11 159.29 226.38 159.29C225.65 159.29 225.06 159.88 225.06 160.61C225.06 161.34 225.65 161.93 226.38 161.93C227.11 161.93 227.7 161.34 227.7 160.61ZM207.85 171.53C207.85 170.8 207.26 170.21 206.53 170.21C205.8 170.21 205.21 170.8 205.21 171.53C205.21 172.26 205.8 172.85 206.53 172.85C207.26 172.85 207.85 172.26 207.85 171.53ZM211.82 171.53C211.82 170.8 211.23 170.21 210.5 170.21C209.77 170.21 209.18 170.8 209.18 171.53C209.18 172.26 209.77 172.85 210.5 172.85C211.23 172.85 211.82 172.26 211.82 171.53ZM215.79 171.53C215.79 170.8 215.2 170.21 214.47 170.21C213.74 170.21 213.15 170.8 213.15 171.53C213.15 172.26 213.74 172.85 214.47 172.85C215.2 172.85 215.79 172.26 215.79 171.53ZM219.76 171.53C219.76 170.8 219.17 170.21 218.44 170.21C217.71 170.21 217.12 170.8 217.12 171.53C217.12 172.26 217.71 172.85 218.44 172.85C219.17 172.85 219.76 172.26 219.76 171.53ZM223.73 171.53C223.73 170.8 223.14 170.21 222.41 170.21C221.68 170.21 221.09 170.8 221.09 171.53C221.09 172.26 221.68 172.85 222.41 172.85C223.14 172.85 223.73 172.26 223.73 171.53ZM227.7 171.53C227.7 170.8 227.11 170.21 226.38 170.21C225.65 170.21 225.06 170.8 225.06 171.53C225.06 172.26 225.65 172.85 226.38 172.85C227.11 172.85 227.7 172.26 227.7 171.53Z" fill="white"/>
</svg>
