<svg width="251" height="254" viewBox="0 0 251 254" fill="none" xmlns="http://www.w3.org/2000/svg">
<path d="M17.05 199.84L6.17 187.68L0 142.33L20.39 106.1L84 43.5699H125.15V214.28L17.05 199.84Z" fill="#E5E5E5"/>
<path d="M100.38 196.27L118.59 178.2L116.24 149.21L72.37 120.77L11.61 121.71L0 142.33L25.14 144.2L100.38 196.27Z" fill="#F4F4F4"/>
<path d="M104.15 246.56L65.21 253.83L21.74 214.28L6.17004 166.39L80.42 197.9L104.15 246.56Z" fill="#DFDFDF"/>
<path d="M82.19 224.37L57.25 211.03L88.11 173.19L95.63 171.31L96.52 178.2L100.46 193.59L82.19 224.37Z" fill="#DBDBDC"/>
<path d="M100.38 243.29L110.97 252.49L125.15 253.83V244.98L100.38 239.29V243.29Z" fill="#DBDBDC"/>
<path d="M110.39 242.62L125.15 249.41V237.6L115.9 234.91L110.39 242.62Z" fill="#6C5FAD"/>
<path d="M125.15 222.21V232.76L117.12 239.56L106.68 244.31L92.76 242.07L80.42 228.83L88.65 208.08L95.63 199.13L102.78 204.5L125.15 222.21Z" fill="#EBE9F4"/>
<path d="M45.89 149.21L25.14 144.2L6.17004 166.39L28.71 202.08L52.33 214.28L81.23 195.19L89.89 177.47L65.48 152.79L45.89 149.21Z" fill="#EBE9F4"/>
<path d="M45.89 149.21L72.37 154.04L97.42 167.64L98.85 178.2H96.52L95.09 174.44L88.65 178.2H69.51L58.41 170.32L55.37 158.16L45.89 149.21Z" fill="#40253F"/>
<path d="M125.15 203.25L112.8 199.84L102.78 204.5L110.3 210.45L115.58 209.24L120.67 215.41L121.5 219.32L125.15 222.21V203.25Z" fill="#6C5FAD"/>
<path d="M115.58 209.24L110.3 210.45L121.5 219.32L120.67 215.41L115.58 209.24Z" fill="#40253F"/>
<path d="M59.61 151.72V158.25L62.8 168.27L70.85 173.19H88.11L94.32 165.96L72.37 154.04L59.61 151.72Z" fill="#A597F4"/>
<path d="M61.4301 152.05V158.23L64.34 167.35L71.1801 171.31H87.8201L92.7601 165.11L72.3701 154.04L61.4301 152.05Z" fill="#6BFFEE"/>
<path d="M74.87 155.4L72.01 158.25L74.47 164.2L78.27 165.05L81.23 161.68V158.85L74.87 155.4Z" fill="#40253F"/>
<path d="M102.78 204.5L109.09 191.31L112.8 199.84L102.78 204.5Z" fill="#CECDD6"/>
<path d="M109.09 191.31L119.42 181.11L125.15 179.24V203.25L112.8 199.84L109.09 191.31Z" fill="#DBDBDC"/>
<path d="M103.5 171.31L111.73 180.7L95.63 199.13L102.78 204.5L109.09 191.31L119.42 181.11L125.15 179.24V142.59L119.78 120.77L117.12 123.63L119.96 142.77L103.5 171.31Z" fill="#DFDFDF"/>
<path d="M118.59 238.32L125.15 239.29V232.76L118.59 238.32Z" fill="#40253F"/>
<path d="M74.07 52.96L57.43 30.68L40.52 14.31L17.71 3.04004L6.55004 4.14004L2.42004 18.07L7.07004 28.81V48.67L16.19 74.61L15.12 98.94L26.57 111.28L71.62 77.52L74.07 52.96Z" fill="#FCC5CD"/>
<path d="M87.4 40.97L62.57 28.81L41.42 10.56L19.77 0H7.78005L6.55005 4.14L17.71 3.04L40.5201 14.31L57.43 30.68L74.07 52.96L71.62 77.52L99.03 56.98L87.4 40.97Z" fill="#F4F4F4"/>
<path d="M233.25 199.84L244.12 187.68L250.3 142.33L229.9 106.1L166.3 43.5699H125.15V214.28L233.25 199.84Z" fill="#E5E5E5"/>
<path d="M149.92 196.27L131.71 178.2L134.05 149.21L177.93 120.77L238.69 121.71L250.3 142.33L225.16 144.2L149.92 196.27Z" fill="#F4F4F4"/>
<path d="M146.15 246.56L185.08 253.83L228.56 214.28L244.12 166.39L169.88 197.9L146.15 246.56Z" fill="#DFDFDF"/>
<path d="M168.1 224.37L193.04 211.03L162.18 173.19L154.67 171.31L153.77 178.2L149.83 193.59L168.1 224.37Z" fill="#DBDBDC"/>
<path d="M149.92 243.29L139.33 252.49L125.15 253.83V244.98L149.92 239.29V243.29Z" fill="#DBDBDC"/>
<path d="M139.91 242.62L125.15 249.41V237.6L134.4 234.91L139.91 242.62Z" fill="#6C5FAD"/>
<path d="M125.15 222.21V232.76L133.18 239.56L143.62 244.31L157.53 242.07L169.88 228.83L161.64 208.08L154.67 199.13L147.51 204.5L125.15 222.21Z" fill="#EBE9F4"/>
<path d="M204.41 149.21L225.16 144.2L244.12 166.39L221.58 202.08L197.97 214.28L169.07 195.19L160.4 177.47L184.81 152.79L204.41 149.21Z" fill="#EBE9F4"/>
<path d="M204.41 149.21L177.93 154.04L152.88 167.64L151.45 178.2H153.77L155.2 174.44L161.64 178.2H180.79L191.88 170.32L194.92 158.16L204.41 149.21Z" fill="#40253F"/>
<path d="M125.15 203.25L137.49 199.84L147.51 204.5L140 210.45L134.72 209.24L129.62 215.41L128.79 219.32L125.15 222.21V203.25Z" fill="#6C5FAD"/>
<path d="M134.72 209.24L140 210.45L128.79 219.32L129.62 215.41L134.72 209.24Z" fill="#40253F"/>
<path d="M190.69 151.72V158.25L187.5 168.27L179.45 173.19H162.18L155.98 165.96L177.93 154.04L190.69 151.72Z" fill="#A597F4"/>
<path d="M188.87 152.05V158.23L185.95 167.35L179.11 171.31H162.47L157.53 165.11L177.93 154.04L188.87 152.05Z" fill="#6BFFEE"/>
<path d="M175.42 155.4L178.28 158.25L175.82 164.2L172.02 165.05L169.07 161.68V158.85L175.42 155.4Z" fill="#40253F"/>
<path d="M147.51 204.5L141.2 191.31L137.49 199.84L147.51 204.5Z" fill="#CECDD6"/>
<path d="M141.2 191.31L130.87 181.11L125.15 179.24V203.25L137.49 199.84L141.2 191.31Z" fill="#DBDBDC"/>
<path d="M146.8 171.31L138.57 180.7L154.67 199.13L147.51 204.5L141.2 191.31L130.87 181.11L125.15 179.24V142.59L130.52 120.77L133.18 123.63L130.34 142.77L146.8 171.31Z" fill="#DFDFDF"/>
<path d="M131.71 238.32L125.15 239.29V232.76L131.71 238.32Z" fill="#40253F"/>
<path d="M176.23 52.96L192.87 30.68L209.77 14.31L232.59 3.04004L243.74 4.14004L247.88 18.07L243.23 28.81V48.67L234.11 74.61L235.18 98.94L223.73 111.28L178.67 77.52L176.23 52.96Z" fill="#FCC5CD"/>
<path d="M162.9 40.97L187.72 28.81L208.88 10.56L230.53 0H242.51L243.74 4.14L232.59 3.04L209.77 14.31L192.87 30.68L176.23 52.96L178.67 77.52L151.27 56.98L162.9 40.97Z" fill="#F4F4F4"/>
<g style="mix-blend-mode:multiply">
<path d="M229.26 105.4L235.25 98.94L234.18 74.61L243.3 48.67V28.81L247.95 18.07L243.82 4.14L242.59 0H230.6L208.95 10.56L187.8 28.81L162.97 40.97L161.09 43.57H125.22V253.83L139.4 252.49L146.23 246.56L185.16 253.83L228.63 214.28L233.33 199.84L244.2 187.68L250.37 142.33L229.97 106.1L229.26 105.4Z" fill="#D9D9D9"/>
</g>
</svg>
