<svg width="291" height="259" viewBox="0 0 291 259" fill="none" xmlns="http://www.w3.org/2000/svg">
<path d="M90.94 222.65L60.85 211.11L32.77 168.31L45.5 147.35L108.34 213.96L90.94 222.65Z" fill="#1C1C1C"/>
<path d="M49.45 156.71L42.13 168.31H32.77L26.46 132.29L31.14 115.19L35.34 88.19L87.44 47.76L144.97 41.52V149.07L49.45 156.71Z" fill="#2D2D2D"/>
<path d="M92.19 212.37L65.5299 188.46L49.45 156.71L70.82 147.14L109.9 148.57L117.48 143.05L137.98 151.82L135.27 195.17L92.19 212.37Z" fill="#2D2D2D"/>
<path d="M144.4 240.26L141.34 243.81L117.63 250.12L108.88 244.22L90.5601 225.7L92.1901 212.37L116.21 195.17H122.44L144.4 240.26Z" fill="#545454"/>
<path d="M123.94 212.37L122.11 191.3L131.67 177.19L129.5 156.71L114.58 139.75L131.67 115.6L130.59 102.3L135.27 100.13L140.15 111.25L144.97 103.77V206.2L123.94 212.37Z" fill="#545454"/>
<path d="M125.57 218.44L123.94 212.37L137.24 186.83L144.97 182.76V216.81L125.57 218.44Z" fill="#5E5E5E"/>
<path d="M139.95 214.91L130.45 213.96L125.57 218.44L128.28 221.9L131.27 221.69L138.25 225.63V228.48L137.03 230.65L138.25 232.68L140.15 234.92L138.95 235.56L142.12 239.61L144.97 240.42V216.81L139.95 214.91Z" fill="#FCC5CD"/>
<path d="M138.25 232.68L137.03 230.65L138.25 228.48V225.63L131.27 221.69L128.28 221.9L138.95 235.56L140.15 234.92L138.25 232.68Z" fill="#AD666A"/>
<path d="M112.95 172.58L111.19 180.86H115.39L117.48 172.58L107.39 145.72L87.71 140.97L69.53 144.77L70.82 147.14L74.42 148.7L76.45 159.69L88.26 170.95L106.84 171.5L110.24 168.78L112.95 172.58Z" fill="#241B16"/>
<path d="M78.86 144.49L77.23 148.36L78.86 158.64L88.48 168.36L106.59 169.78L112.14 162.35L106.03 146.63L87.73 142.65L78.86 144.49Z" fill="#6BFFEE"/>
<path d="M94.28 149.84L96.46 151.26V155.33L95.14 159.2H94.28L93.72 154.52L94.28 149.84Z" fill="#241B16"/>
<g style="mix-blend-mode:soft-light">
<path d="M93.7199 145.58L92.9399 152.43L95.4499 152.84L99.2499 146.19L93.7199 145.58Z" fill="white"/>
</g>
<path d="M90.8299 67.0801L28.7599 5.02008L12.3499 2.58008L0.159912 8.98008L2.02991 45.5901L10.1699 64.3101L18.3199 98.5001L28.0799 109.29L30.9399 115.9L90.8299 67.0801Z" fill="#D3BABD"/>
<path d="M28.29 5.43L90.83 67.08L99.72 59.83L65.94 28.9L28.49 2.44L12.01 0L0 5.9L0.16 8.98L12.35 2.58L28.29 5.43Z" fill="#5E5E5E"/>
<path d="M198.95 222.65L229.04 211.11L257.12 168.31L244.4 147.35L181.55 213.96L198.95 222.65Z" fill="#1C1C1C"/>
<path d="M240.44 156.71L247.76 168.31H257.12L263.43 132.29L258.75 115.19L254.55 88.19L202.45 47.76L144.92 41.52V149.07L240.44 156.71Z" fill="#2D2D2D"/>
<path d="M197.7 212.37L224.36 188.46L240.44 156.71L219.07 147.14L179.99 148.57L172.41 143.05L151.91 151.82L154.62 195.17L197.7 212.37Z" fill="#2D2D2D"/>
<path d="M145.48 240.26L148.55 243.81L172.26 250.12L181.01 244.22L199.33 225.7L197.7 212.37L173.68 195.17H167.44L145.48 240.26Z" fill="#545454"/>
<path d="M165.95 212.37L167.78 191.3L158.22 177.19L160.39 156.71L175.31 139.75L158.22 115.6L159.3 102.3L154.62 100.13L149.74 111.25L144.92 103.77V206.2L165.95 212.37Z" fill="#545454"/>
<path d="M164.32 218.44L165.95 212.37L152.65 186.83L144.92 182.76V216.81L164.32 218.44Z" fill="#5E5E5E"/>
<path d="M149.94 214.91L159.44 213.96L164.32 218.44L161.61 221.9L158.62 221.69L151.64 225.63V228.48L152.86 230.65L151.64 232.68L149.74 234.92L150.94 235.56L147.77 239.61L144.92 240.42V216.81L149.94 214.91Z" fill="#FCC5CD"/>
<path d="M151.64 232.68L152.86 230.65L151.64 228.48V225.63L158.62 221.69L161.61 221.9L150.94 235.56L149.74 234.92L151.64 232.68Z" fill="#AD666A"/>
<path d="M176.94 172.58L178.7 180.86H174.5L172.41 172.58L182.5 145.72L202.17 140.97L220.36 144.77L219.07 147.14L215.47 148.7L213.44 159.69L201.63 170.95L183.05 171.5L179.65 168.78L176.94 172.58Z" fill="#241B16"/>
<path d="M211.03 144.49L212.66 148.36L211.03 158.64L201.41 168.36L183.3 169.78L177.75 162.35L183.86 146.63L202.16 142.65L211.03 144.49Z" fill="#6BFFEE"/>
<path d="M195.61 149.84L193.43 151.26V155.33L194.75 159.2H195.61L196.17 154.52L195.61 149.84Z" fill="#241B16"/>
<g style="mix-blend-mode:soft-light">
<path d="M196.17 145.58L196.95 152.43L194.44 152.84L190.64 146.19L196.17 145.58Z" fill="white"/>
</g>
<path d="M199.06 67.0801L261.13 5.02008L277.54 2.58008L289.73 8.98008L287.86 45.5901L279.72 64.3101L271.57 98.5001L261.81 109.29L258.95 115.9L199.06 67.0801Z" fill="#D3BABD"/>
<path d="M261.6 5.43L199.06 67.08L190.17 59.83L223.95 28.9L261.4 2.44L277.88 0L289.89 5.9L289.73 8.98L277.54 2.58L261.6 5.43Z" fill="#5E5E5E"/>
<path d="M128.6 110.28L109.95 133.87L107.39 145.72L108.44 148.51L109.9 148.57L117.48 143.05L114.58 139.75L129.77 118.28L128.6 110.28Z" fill="#5E5E5E"/>
<path d="M161.29 110.28L179.94 133.87L182.5 145.72L181.45 148.51L179.99 148.57L172.41 143.05L175.31 139.75L160.12 118.28L161.29 110.28Z" fill="#5E5E5E"/>
<g style="mix-blend-mode:multiply">
<path d="M145.74 258.67H154.81L165.66 248.16L173.03 250.12L181.78 244.22L200.09 225.7L199.72 222.65L229.81 211.11L257.89 168.31L264.2 132.29L259.71 115.89L262.57 109.29L272.34 98.5L280.48 64.31L288.62 45.59L290.5 8.98L290.66 5.9L278.65 0L262.17 2.44L224.72 28.9L203.71 48.14L203.21 47.76L168.03 43.94L162.95 43.39L156.34 42.67L152.91 42.3L147.41 41.71L146.08 41.52L145.86 41.54L145.74 41.52H145.71V258.67H145.74Z" fill="#DBDBDB"/>
</g>
</svg>
