<svg width="54" height="65" viewBox="0 0 54 65" fill="none" xmlns="http://www.w3.org/2000/svg">
<path d="M49.2 26.8C51.7 25.4 53.5 22.8 53.5 19.7V19.6V19.5C53.5 19.5 53.5 19.5 53.5 19.4V19.3C53.5 19.3 53.5 19.3 53.5 19.2C53.5 19.2 53.5 19.2 53.5 19.1V19C53.5 19 53.5 19 53.5 18.9V18.8L48.5 8.20001V4.59998C48.5 2.29998 46.6 0.299988 44.2 0.299988H9.79999C7.49999 0.299988 5.5 2.19998 5.5 4.59998V8.29999L0.5 18.8V18.9C0.5 18.9 0.5 18.9 0.5 19C0.5 19.1 0.5 19.1 0.5 19.1C0.5 19.1 0.5 19.1 0.5 19.2C0.5 19.3 0.5 19.2 0.5 19.3V19.4C0.5 19.4 0.5 19.4 0.5 19.5V19.6V19.7C0.5 22.8 2.29999 25.4 4.79999 26.8V57.8C4.79999 61.3 7.2 64.2 10 64.2H44C46.9 64.2 49.2 61.3 49.2 57.8V26.8ZM45.4 25C43.4 25 41.5 23.8 40.6 22L40.4 20.9H50.7C50 23.3 47.9 25 45.4 25ZM16.4 20.9H25.5V22.1C24.6 23.8 22.7 25 20.7 25C18.8 25 17 24 16 22.3L16.4 20.9ZM7.70001 10H16.1L14.2 18.1H3.90002L7.70001 10ZM18.9 10H25.5V18.1H17L18.9 10ZM35 10L36.9 18.1H28.4V10H35ZM50 18.2H39.7L37.8 10.1H46.2L50 18.2ZM28.3 20.9H37.4L37.7 22.3C36.7 23.9 34.9 25 33 25C31 25 29.2 23.9 28.2 22.1V20.9H28.3ZM8.20001 4.79999C8.20001 3.99999 8.90001 3.29999 9.70001 3.29999H44.1C44.9 3.29999 45.6 3.99999 45.6 4.79999V7.29999H8.09998V4.79999H8.20001ZM3.29999 20.9H13.6L13.4 22C12.5 23.8 10.6 25 8.59998 25C5.99998 25 3.89999 23.3 3.29999 20.9ZM8.5 27.7C10.9 27.7 13.1 26.7 14.6 24.9C16.1 26.6 18.4 27.7 20.7 27.7C23 27.7 25.3 26.7 26.8 24.9C28.3 26.6 30.6 27.7 32.9 27.7C35.2 27.7 37.5 26.7 39 24.9C40.5 26.6 42.8 27.7 45.1 27.7C45.5 27.7 45.9 27.7 46.2 27.6V52.9H7.09998V27.6C7.79998 27.7 8.2 27.7 8.5 27.7ZM44 61.4H9.90002C8.50002 61.4 7.40002 59.7 7.40002 57.8V55.8H46.5V57.8C46.5 59.7 45.3 61.4 44 61.4Z" fill="black"/>
<path d="M27 56.8C26.6 56.8 26.3 56.9 26 57.2C25.7 57.5 25.6 57.8 25.6 58.2C25.6 58.6 25.7 58.9 26 59.2C26.3 59.5 26.6 59.6 27 59.6C27.4 59.6 27.7 59.5 28 59.2C28.3 58.9 28.4 58.6 28.4 58.2C28.4 57.8 28.3 57.5 28 57.2C27.7 56.9 27.3 56.8 27 56.8Z" fill="black"/>
<path d="M34 45.7C34.3 45.7 34.7 45.6 35 45.3L41.6 38.7C42.1 38.2 42.1 37.3 41.6 36.8C41.1 36.3 40.2 36.3 39.7 36.8L33.1 43.4C32.6 43.9 32.6 44.8 33.1 45.3C33.3 45.6 33.7 45.7 34 45.7Z" fill="black"/>
<path d="M38.2 44.9C37.7 45.4 37.7 46.3 38.2 46.8C38.5 47.1 38.8 47.2 39.2 47.2C39.6 47.2 39.9 47.1 40.2 46.8L43.1 43.9C43.6 43.4 43.6 42.5 43.1 42C42.6 41.5 41.7 41.5 41.2 42L38.2 44.9Z" fill="black"/>
</svg>
